<svg xmlns="http://www.w3.org/2000/svg" xmlns:xlink="http://www.w3.org/1999/xlink" width="80" height="140" viewBox="0 0 80 140"><defs><filter id="a" x="2" y="105" width="32" height="33" filterUnits="userSpaceOnUse"><feOffset dy="3" input="SourceAlpha"/><feGaussianBlur stdDeviation="3" result="b"/><feFlood flood-opacity="0.059"/><feComposite operator="in" in2="b"/><feComposite in="SourceGraphic"/></filter><filter id="c" x="18" y="105" width="61" height="20" filterUnits="userSpaceOnUse"><feOffset dy="3" input="SourceAlpha"/><feGaussianBlur stdDeviation="3" result="d"/><feFlood flood-opacity="0.059"/><feComposite operator="in" in2="d"/><feComposite in="SourceGraphic"/></filter><filter id="e" x="18" y="109" width="44" height="20" filterUnits="userSpaceOnUse"><feOffset dy="3" input="SourceAlpha"/><feGaussianBlur stdDeviation="3" result="f"/><feFlood flood-opacity="0.059"/><feComposite operator="in" in2="f"/><feComposite in="SourceGraphic"/></filter><filter id="g" x="18.625" y="116.788" width="20.799" height="20.589" filterUnits="userSpaceOnUse"><feOffset dy="3" input="SourceAlpha"/><feGaussianBlur stdDeviation="3" result="h"/><feFlood flood-opacity="0"/><feComposite operator="in" in2="h"/><feComposite in="SourceGraphic"/></filter><filter id="i" x="35" y="118" width="44" height="20" filterUnits="userSpaceOnUse"><feOffset dy="3" input="SourceAlpha"/><feGaussianBlur stdDeviation="3" result="j"/><feFlood flood-opacity="0.059"/><feComposite operator="in" in2="j"/><feComposite in="SourceGraphic"/></filter><filter id="k" x="20.592" y="7.687" width="38.15" height="36.091" filterUnits="userSpaceOnUse"><feOffset dy="3" input="SourceAlpha"/><feGaussianBlur stdDeviation="3" result="l"/><feFlood flood-opacity="0.161"/><feComposite operator="in" in2="l"/><feComposite in="SourceGraphic"/></filter></defs><g transform="translate(1625 606)"><path d="M0,0H80V140H0Z" transform="translate(-1625 -606)" fill="#292c35"/><g transform="translate(36 24)"><g transform="matrix(1, 0, 0, 1, -1661, -630)" filter="url(#a)"><rect width="14" height="15" rx="0.5" transform="translate(11 111)" fill="#b5b6b8"/></g><g transform="matrix(1, 0, 0, 1, -1661, -630)" filter="url(#c)"><rect width="43" height="2" rx="0.5" transform="translate(27 111)" fill="#f4f7fa"/></g><g transform="matrix(1, 0, 0, 1, -1661, -630)" filter="url(#e)"><rect width="26" height="2" rx="0.5" transform="translate(27 115)" fill="#b5b6b8"/></g><g transform="matrix(1, 0, 0, 1, -1661, -630)" filter="url(#g)"><path d="M1.668,29.992a.453.453,0,0,0-.723.052.69.69,0,0,0-.045.073.689.689,0,0,0-.045-.073.453.453,0,0,0-.723-.052A.545.545,0,0,0,0,30.354a.668.668,0,0,0,.184.438,4.094,4.094,0,0,0,.46.43c.07.059.142.121.218.188l0,0a.053.053,0,0,0,.069,0l0,0c.077-.067.149-.128.218-.188a4.094,4.094,0,0,0,.46-.43.668.668,0,0,0,.184-.438A.545.545,0,0,0,1.668,29.992Z" transform="translate(28.12 93.45)" fill="#29c17e" stroke="#29c17e" stroke-width="1"/></g><g transform="matrix(1, 0, 0, 1, -1661, -630)" filter="url(#i)"><rect width="26" height="2" rx="0.5" transform="translate(44 124)" fill="#b5b6b8"/></g></g><g transform="translate(-1602.412 -598)"><path d="M111.664,180.94a5.679,5.679,0,0,1,0-8.032l11.245-11.245a5.679,5.679,0,0,1,8.032,0l11.245,11.245a5.679,5.679,0,0,1,0,8.032" transform="translate(-110 -160)" fill="#29c17e"/><path d="M111.664,160a5.679,5.679,0,0,0,0,8.032l11.245,11.245a5.679,5.679,0,0,0,8.032,0l11.245-11.245a5.679,5.679,0,0,0,0-8.032" transform="translate(-110 -146.945)" fill="#29c17e"/><g transform="translate(7.004 5.687)"><g transform="translate(0 0)"><g transform="matrix(1, 0, 0, 1, -29.59, -13.69)" filter="url(#k)"><path d="M403.689,48.711c0,.073.085.074.1,0a2.906,2.906,0,0,1,.548-1.258h-.6a.049.049,0,0,0-.049.049Zm4.4-7.548c-.025-.08-.094-.085-.093,0,.007.786-.219,1.461-1.654,2.9L405.2,45.192a8,8,0,0,0-1.255,1.46h1.121l.133-.133,1.628-1.63a3.787,3.787,0,0,0,1.256-3.726m-1.522,4.8-1.36,1.361c-.823.824-1.514,1.533-1.514,2.309v.216c0,.059.073.068.1.007a2.208,2.208,0,0,1,2.662-1.173s6.787,1.173,6.844,1.178a.065.065,0,0,0,.056-.11c-.026-.031-3.159-3.163-3.159-3.163Zm-4.91,1.494a.05.05,0,0,1-.049-.049v-.7a.05.05,0,0,1,.049-.049h1.188a.05.05,0,0,0,.049-.05c0-.631-.479-1.059-2.384-.727l-4.113.707s-3.134,3.132-3.159,3.163a.065.065,0,0,0,.056.11c.057,0,6.844-1.178,6.844-1.178a2.207,2.207,0,0,1,2.662,1.173c.022.061.1.052.1-.007,0-.042,0-2.342,0-2.342a.05.05,0,0,0-.049-.049Zm-1.9-9.815a3.787,3.787,0,0,0-1.256,3.726c.024.08.093.085.092,0-.006-.786.219-1.461,1.655-2.9l3.093-3.093c.823-.823,1.514-1.533,1.514-2.308V31.857c0-.073-.084-.074-.1,0a3.836,3.836,0,0,1-1.413,2.192Zm5.1-2.445V33.974c0-.073-.084-.074-.1,0a3.846,3.846,0,0,1-1.412,2.2L400.1,39.418c-1.577,1.577-1.849,3.1-1.047,4.083.053.066.111.027.076-.053-.53-1.2.741-2.471,1.347-3.077l2.871-2.871c.823-.824,1.514-1.533,1.514-2.309m-4.672,6.264c-1.577,1.577-.852,3.1.068,3.518.081.037.113-.029.051-.082-.738-.639-.513-1.714.414-2.641l2.621-2.621c.823-.823,1.514-1.533,1.514-2.308v-1.21c0-.074-.084-.074-.1,0a3.832,3.832,0,0,1-1.412,2.19Zm3.5,3.919v1.218c0,.073.084.074.1,0a3.851,3.851,0,0,1,1.412-2.2l1.291-1.288c1.577-1.576,1.849-3.1,1.047-4.083-.054-.066-.111-.027-.076.053.53,1.2-.741,2.471-1.347,3.077l-.912.912c-.824.823-1.514,1.533-1.514,2.308m1.515-3.11a3.833,3.833,0,0,0-1.412,2.19c-.015.074-.1.074-.1,0v-1.21c0-.776.691-1.485,1.514-2.309l.662-.662c.928-.927,1.152-2,.414-2.641-.062-.053-.03-.119.051-.082.92.419,1.645,1.942.068,3.519Z" transform="translate(-363.62 -18.11)" fill="#eafbf3"/></g></g></g></g><text transform="translate(-1604 -547)" fill="#f4f7fa" font-size="10" font-family="Poppins-Black, Poppins" font-weight="800"><tspan x="0" y="0">Hinário</tspan></text><text transform="translate(-1610 -540)" fill="#f4f7fa" font-size="5" font-family="Poppins-LightItalic, Poppins" font-weight="300" font-style="italic"><tspan x="0" y="0">Adventista do 7º Dia</tspan></text></g></svg>