<svg xmlns="http://www.w3.org/2000/svg" width="22" height="22" viewBox="0 0 20 20"><g transform="translate(0)"><path fill="#8890A6" fill-rule="evenodd" clip-rule="evenodd" d="M3,18a1,1,0,0,1-1-1V7.829A3,3,0,0,1,2,2.171V1A1,1,0,1,1,4,1V2.171A3,3,0,0,1,4,7.829V17A1,1,0,0,1,3,18ZM3,4A1,1,0,1,0,4,5,1,1,0,0,0,3,4Z"/><path fill="#8890A6" fill-rule="evenodd" clip-rule="evenodd" d="M3,18a1,1,0,0,1-1-1V14.829A3,3,0,0,1,2,9.171V1A1,1,0,1,1,4,1V9.171a3,3,0,0,1,0,5.658V17A1,1,0,0,1,3,18Zm0-7a1,1,0,1,0,1,1A1,1,0,0,0,3,11Z" transform="translate(10)"/></g></svg>