<svg xmlns="http://www.w3.org/2000/svg" width="76" height="61.654" viewBox="0 0 76 61.654">
  <g id="Image" transform="translate(-46.598 -109.666)">
    <g id="Character_Female" data-name="Character Female" transform="translate(46.598 121.041)">
      <g id="Grupo_32" data-name="Grupo 32" transform="translate(0 0)">
        <g id="Grupo_24" data-name="Grupo 24" transform="translate(27.841 41.133)">
          <path id="Caminho_40" data-name="Caminho 40" d="M188.653,373.471l-1.287.829-2.333-2.713,1.287-.829Z" transform="translate(-185.033 -370.758)" fill="#ff8b7b"/>
          <path id="Caminho_41" data-name="Caminho 41" d="M186.323,370.76l-1.287.829,1.2,1.4,1.287-.829Z" transform="translate(-185.035 -370.76)" opacity="0.2"/>
        </g>
        <g id="Grupo_25" data-name="Grupo 25" transform="translate(18.606 44.753)">
          <path id="Caminho_42" data-name="Caminho 42" d="M142.131,392.274l-1.479.145-1.538-3.519,1.479-.144Z" transform="translate(-139.114 -388.755)" fill="#ff8b7b"/>
          <path id="Caminho_43" data-name="Caminho 43" d="M139.118,388.9l.793,1.814h1.542l-.856-1.959Z" transform="translate(-139.117 -388.758)" opacity="0.2"/>
        </g>
        <path id="Caminho_44" data-name="Caminho 44" d="M62.423,166.987c-.745.068-.764-1.2-2.071-.6-1.661.756-1.1,1.929-2.4,1.879s-2.167.963-1.877,1.719.737,1.467-.179,1.771-1.542.572-1.408,1.332.782,1.066-.313,1.55-.983,2.581.089,2.583.045,1.047,1.006,2.107,2.423,1.216,3.033.684a1.688,1.688,0,0,1,2.435-.153c1.146.8,3.086,1.006,3-.268s-1.2-2.112-.153-2.776,2.415-.991,1.986-2.281c-.271-.814-1.092-1.5-.429-2.107,1.076-.977,1.081-3.189-.238-3.75C64.14,168.349,64.879,166.764,62.423,166.987Z" transform="translate(-52.039 -166.227)" fill="#263238"/>
        <path id="Caminho_45" data-name="Caminho 45" d="M59.165,219.029a17.092,17.092,0,0,1-.2,1.707c-.094.56-.216,1.116-.362,1.668a12.691,12.691,0,0,1-.546,1.641c-.109.27-.233.537-.366.8-.067.132-.138.263-.212.393-.035.065-.077.129-.115.194l-.059.1a1.38,1.38,0,0,1-.132.178,1.171,1.171,0,0,1-.4.3,1.244,1.244,0,0,1-.435.11,1.705,1.705,0,0,1-.652-.088,3.93,3.93,0,0,1-.885-.434,10.891,10.891,0,0,1-1.374-1.064,23.065,23.065,0,0,1-2.3-2.428l.564-.532c.4.354.811.714,1.226,1.056s.831.684,1.258,1a10.575,10.575,0,0,0,1.288.85,2.617,2.617,0,0,0,.6.248.391.391,0,0,0,.157.014s-.011,0-.04.008a.249.249,0,0,0-.073.049.042.042,0,0,1-.01.01s-.008.013,0,0l.044-.081c.029-.055.06-.107.087-.163.056-.111.111-.223.161-.337.1-.23.2-.464.282-.706.169-.482.31-.982.435-1.489s.219-1.024.3-1.544.151-1.055.2-1.549Z" transform="translate(-50.213 -208.332)" fill="#ff8b7b"/>
        <g id="Grupo_26" data-name="Grupo 26" transform="translate(6.267 9.364)">
          <path id="Caminho_46" data-name="Caminho 46" d="M81.615,214.312a10.633,10.633,0,0,1-.81,2.092c-.237.495-.43.867-.43.867l-.282-.125-2.331-1.038c.177-1.257.465-2.624,1.85-3.232A1.56,1.56,0,0,1,81.615,214.312Z" transform="translate(-77.762 -212.789)" fill="#407bff"/>
          <path id="Caminho_47" data-name="Caminho 47" d="M81.615,214.312a10.633,10.633,0,0,1-.81,2.092c-.237.495-.43.867-.43.867l-.282-.125-2.331-1.038c.177-1.257.465-2.624,1.85-3.232A1.56,1.56,0,0,1,81.615,214.312Z" transform="translate(-77.762 -212.789)" fill="#6b87c9" opacity="0.6"/>
        </g>
        <path id="Caminho_48" data-name="Caminho 48" d="M90.064,227.231c-.237.495-.43.867-.43.867l-.282-.125a3.674,3.674,0,0,1,.406-1.631A2.2,2.2,0,0,1,90.064,227.231Z" transform="translate(-80.754 -214.252)" opacity="0.3"/>
        <path id="Caminho_49" data-name="Caminho 49" d="M49.071,228.914l.186-1.354-1.52.5a2.318,2.318,0,0,0,.783,1.155Z" transform="translate(-47.508 -215.225)" fill="#ff8b7b"/>
        <path id="Caminho_50" data-name="Caminho 50" d="M47.657,221.813l-1.059.581.229,1.074,1.52-.5Z" transform="translate(-46.598 -210.634)" fill="#ff8b7b"/>
        <path id="Caminho_51" data-name="Caminho 51" d="M188.822,382.279l1.4-1a.121.121,0,0,1,.16.014l.952.992a.246.246,0,0,1-.041.364c-.493.341-.749.481-1.363.922-.378.271-1.174.927-1.7,1.3s-.92-.122-.736-.324a4.439,4.439,0,0,0,1.174-2.04A.4.4,0,0,1,188.822,382.279Z" transform="translate(-159.124 -338.009)" fill="#263238"/>
        <path id="Caminho_52" data-name="Caminho 52" d="M135.02,404.7h1.816a.15.15,0,0,1,.143.11l.395,1.437a.226.226,0,0,1-.222.287c-.64.006-.943,0-1.742,0h-2.441c-.664,0-.8-.671-.528-.732a4.943,4.943,0,0,0,2.32-1.007A.374.374,0,0,1,135.02,404.7Z" transform="translate(-115.072 -356.742)" fill="#263238"/>
        <g id="Grupo_28" data-name="Grupo 28" transform="translate(7.713 7.155)">
          <g id="Grupo_27" data-name="Grupo 27">
            <path id="Caminho_53" data-name="Caminho 53" d="M94.422,210.985l-5.927,1.874c-4.1-8.121-3.517-8.551-3.517-8.551s.947-.541,1.933-.991c.149-.068.3-.135.448-.2a19.788,19.788,0,0,1,2.691-.853c.135-.036.269-.068.4-.1a18.906,18.906,0,0,1,2.218-.364c.088,1.124.177,2.075.273,2.9.125,1.078.259,1.941.41,2.687A23.473,23.473,0,0,0,94.422,210.985Z" transform="translate(-84.949 -201.802)" fill="#407bff"/>
            <path id="Caminho_54" data-name="Caminho 54" d="M94.422,210.985l-5.927,1.874c-4.1-8.121-3.517-8.551-3.517-8.551s.947-.541,1.933-.991c.149-.068.3-.135.448-.2a19.788,19.788,0,0,1,2.691-.853c.135-.036.269-.068.4-.1a18.906,18.906,0,0,1,2.218-.364c.088,1.124.177,2.075.273,2.9.125,1.078.259,1.941.41,2.687A23.473,23.473,0,0,0,94.422,210.985Z" transform="translate(-84.949 -201.802)" fill="#8890a6" opacity="0.6"/>
          </g>
          <path id="Caminho_55" data-name="Caminho 55" d="M122.8,216.171a6.411,6.411,0,0,1-.973-3.379l.563.692C122.511,214.562,122.645,215.424,122.8,216.171Z" transform="translate(-114.389 -210.582)" opacity="0.3"/>
        </g>
        <path id="Caminho_56" data-name="Caminho 56" d="M103.625,206.838s1.5-.323,1.976.325c.659-.648.427-3.187.108-4.092a3.934,3.934,0,0,0-.739.21l-1.055,1.632Z" transform="translate(-92.156 -195.661)" fill="#fff"/>
        <path id="Caminho_57" data-name="Caminho 57" d="M94.49,211.057s-1.011.225-1.112,1.047a2.977,2.977,0,0,1-.991-3.486,3.6,3.6,0,0,1,.756-.265l1.055,1.161Z" transform="translate(-83.021 -199.88)" fill="#fff"/>
        <g id="Grupo_29" data-name="Grupo 29" transform="translate(10.049 5.53)">
          <path id="Caminho_58" data-name="Caminho 58" d="M98.332,194.1a2.637,2.637,0,0,0,1,1.713s.465,1.331-1.346,3.557c-1.894-1.35-1.346-2.706-1.346-2.706.893-.536.641-1.244.26-1.864l.525-.842A.5.5,0,0,1,98.332,194.1Z" transform="translate(-96.567 -193.723)" fill="#ff8b7b"/>
          <path id="Caminho_59" data-name="Caminho 59" d="M101.07,194.1a.5.5,0,0,0-.907-.141l-.169.269v0c.014.179.022.326.02.4-.016.523.718.5,1.315.247A5.315,5.315,0,0,1,101.07,194.1Z" transform="translate(-99.305 -193.724)" opacity="0.2"/>
        </g>
        <path id="Caminho_60" data-name="Caminho 60" d="M86.73,174.387c.522,1.427.712,2.042,1.668,2.569a1.941,1.941,0,0,0,2.991-1.713c-.076-1.4-.917-3.5-2.512-3.652A2.072,2.072,0,0,0,86.73,174.387Z" transform="translate(-78.554 -170.504)" fill="#ff8b7b"/>
        <path id="Caminho_61" data-name="Caminho 61" d="M87.965,171.192a2.3,2.3,0,0,0-1.99-.915,2.09,2.09,0,0,0-1.52.778l-.938,2.049s.582,2.639,1.541,1.406a3.091,3.091,0,0,0,.359-2.59,6.564,6.564,0,0,0,1.11-.258,1.233,1.233,0,0,0,1.307-.173c.08-.074.139-.132.181-.178l.033-.039C88.165,171.134,88.074,171.149,87.965,171.192Zm-1.266.419a10.119,10.119,0,0,1,1.045-.279A1.03,1.03,0,0,1,86.7,171.611Z" transform="translate(-76.092 -169.452)" fill="#263238"/>
        <path id="Caminho_62" data-name="Caminho 62" d="M87.3,189.661a1.11,1.11,0,0,0,.677.51c.378.095.556-.245.443-.6-.1-.316-.422-.746-.8-.685A.5.5,0,0,0,87.3,189.661Z" transform="translate(-79.05 -184.327)" fill="#ff8b7b"/>
        <g id="Grupo_30" data-name="Grupo 30" transform="translate(11.25 16.839)">
          <path id="Caminho_63" data-name="Caminho 63" d="M102.544,251.331s-.209,12.147,1.386,16.535c1.529,4.207,6.088,11.439,6.088,11.439l2.642-.068s-4.2-9.156-4.885-12.779c-1.141-6.007-.889-16.5-.889-16.5Z" transform="translate(-102.535 -249.958)" fill="#29c17e"/>
          <path id="Caminho_64" data-name="Caminho 64" d="M114.38,252.372l.71-2.013,1.257-.4s-.115,4.772.161,9.722A24.165,24.165,0,0,1,114.38,252.372Z" transform="translate(-111.998 -249.96)" opacity="0.3"/>
        </g>
        <path id="Caminho_65" data-name="Caminho 65" d="M135.949,392.25l3.263-.083-.189-1-3.563.169Z" transform="translate(-117.589 -345.927)" fill="#263238"/>
        <path id="Caminho_66" data-name="Caminho 66" d="M109.044,248.945s4.122,9.431,6.786,14.8c2.152,4.335,8.849,10.152,8.849,10.152l1.835-1.274a114.62,114.62,0,0,1-6.524-9.829c-4.757-9.41-3.584-13.287-6.319-15.331Z" transform="translate(-96.485 -231.125)" fill="#29c17e"/>
        <path id="Caminho_67" data-name="Caminho 67" d="M184.5,372.086l2.156-1.534-.49-.942L183.8,371.4Z" transform="translate(-156.206 -328.708)" fill="#263238"/>
        <path id="Caminho_68" data-name="Caminho 68" d="M107.334,245.508l.435.446c.034.035,0,.092-.07.114l-6.216,1.967c-.054.017-.106,0-.12-.028l-.221-.514c-.015-.035.021-.081.079-.1l6-1.9A.113.113,0,0,1,107.334,245.508Z" transform="translate(-90.17 -229.546)" fill="#263238"/>
        <path id="Caminho_69" data-name="Caminho 69" d="M127.526,247.054l.161-.051c.032-.01.051-.035.042-.054l-.293-.665c-.008-.02-.042-.027-.074-.017l-.161.051c-.032.01-.051.034-.043.054l.294.665C127.461,247.056,127.494,247.064,127.526,247.054Z" transform="translate(-110.956 -230.166)" fill="#407bff"/>
        <path id="Caminho_70" data-name="Caminho 70" d="M103.722,254.585l.161-.051c.032-.01.051-.034.043-.054l-.294-.665c-.008-.02-.042-.027-.074-.017l-.161.051c-.032.01-.051.034-.043.054l.293.665C103.657,254.588,103.69,254.6,103.722,254.585Z" transform="translate(-91.939 -236.183)" fill="#407bff"/>
        <path id="Caminho_71" data-name="Caminho 71" d="M115.624,250.82l.161-.051c.032-.01.051-.034.042-.054l-.293-.665c-.009-.02-.042-.027-.074-.017l-.161.051c-.032.01-.051.034-.043.054l.294.665C115.559,250.822,115.592,250.83,115.624,250.82Z" transform="translate(-101.447 -233.175)" fill="#407bff"/>
        <path id="Caminho_72" data-name="Caminho 72" d="M99.637,182.949c.035.118.126.2.2.172s.111-.138.076-.256-.126-.2-.2-.172S99.6,182.831,99.637,182.949Z" transform="translate(-88.959 -179.378)" fill="#263238"/>
        <path id="Caminho_73" data-name="Caminho 73" d="M106.287,180.969c.035.118.126.2.2.172s.112-.138.076-.256-.126-.2-.2-.172S106.252,180.851,106.287,180.969Z" transform="translate(-94.272 -177.796)" fill="#263238"/>
        <path id="Caminho_74" data-name="Caminho 74" d="M106.561,180.15l.26-.167S106.741,180.249,106.561,180.15Z" transform="translate(-94.502 -177.217)" fill="#263238"/>
        <path id="Caminho_75" data-name="Caminho 75" d="M104.685,183.526a3.29,3.29,0,0,0,.647.63.53.53,0,0,1-.4.2Z" transform="translate(-93.003 -180.047)" fill="#ff5652"/>
        <path id="Caminho_76" data-name="Caminho 76" d="M100.086,190.062a.036.036,0,0,0-.034-.063.98.98,0,0,1-.873-.139.036.036,0,0,0-.051,0,.036.036,0,0,0,0,.051,1.034,1.034,0,0,0,.941.153A.036.036,0,0,0,100.086,190.062Z" transform="translate(-88.557 -185.1)" fill="#263238"/>
        <path id="Caminho_77" data-name="Caminho 77" d="M96.7,180.228a.073.073,0,0,0,.022-.031.577.577,0,0,1,.376-.364.073.073,0,1,0-.032-.142.719.719,0,0,0-.48.455.073.073,0,0,0,.114.081Z" transform="translate(-86.532 -176.982)" fill="#263238"/>
        <path id="Caminho_78" data-name="Caminho 78" d="M105.534,177.782a.064.064,0,0,0,0-.013.072.072,0,0,0-.058-.085.72.72,0,0,0-.639.172.073.073,0,0,0,.1.1.574.574,0,0,1,.507-.131A.072.072,0,0,0,105.534,177.782Z" transform="translate(-93.112 -175.368)" fill="#263238"/>
        <path id="Caminho_79" data-name="Caminho 79" d="M124.081,208.857c.24.18.441.347.651.528s.408.362.606.549q.589.567,1.127,1.189a13.128,13.128,0,0,1,1,1.313c.08.113.15.234.225.351s.148.236.215.359.136.237.207.374l.106.223.087.225a5.311,5.311,0,0,1,.256,1.77,9.619,9.619,0,0,1-.179,1.661,15.84,15.84,0,0,1-.4,1.578,15.009,15.009,0,0,1-.568,1.517l-.727-.269c.124-.483.244-.99.332-1.49a14.826,14.826,0,0,0,.216-1.5,9.773,9.773,0,0,0,.033-1.469,5.8,5.8,0,0,0-.085-.692,3.718,3.718,0,0,0-.183-.62l-.061-.139-.069-.128c-.053-.092-.127-.2-.19-.3s-.133-.2-.2-.3-.138-.2-.215-.3c-.293-.4-.624-.768-.955-1.14s-.692-.722-1.059-1.064c-.182-.172-.368-.341-.556-.506s-.387-.33-.561-.47Z" transform="translate(-107.744 -200.284)" fill="#ff8b7b"/>
        <path id="Caminho_80" data-name="Caminho 80" d="M137.544,263l-1.1.809,1.416.744a2.317,2.317,0,0,0,.284-1.367Z" transform="translate(-118.374 -243.536)" fill="#ff8b7b"/>
        <path id="Caminho_81" data-name="Caminho 81" d="M134.7,268.323l1.154.356.611-.912-1.416-.744Z" transform="translate(-116.985 -246.752)" fill="#ff8b7b"/>
        <g id="Grupo_31" data-name="Grupo 31" transform="translate(14.223 7.154)">
          <path id="Caminho_82" data-name="Caminho 82" d="M118.534,201.8c.77-.035,2.284,1.858,2.284,1.858l-1.572,2.223s-1.766-1.4-1.9-2.387C117.228,202.66,117.553,201.845,118.534,201.8Z" transform="translate(-117.321 -201.8)" fill="#407bff"/>
          <path id="Caminho_83" data-name="Caminho 83" d="M118.534,201.8c.77-.035,2.284,1.858,2.284,1.858l-1.572,2.223s-1.766-1.4-1.9-2.387C117.228,202.66,117.553,201.845,118.534,201.8Z" transform="translate(-117.321 -201.8)" fill="#6b87c9" opacity="0.6"/>
        </g>
        <path id="Caminho_84" data-name="Caminho 84" d="M190.836,387.708h-.025a.206.206,0,0,1-.161-.121.124.124,0,0,1,0-.125c.1-.169.65-.2.713-.2a.036.036,0,0,1,.029.06C191.263,387.469,191.026,387.708,190.836,387.708Zm.442-.369c-.221.017-.514.068-.566.157a.052.052,0,0,0,0,.055.136.136,0,0,0,.105.083C190.924,387.648,191.092,387.538,191.278,387.34Z" transform="translate(-161.666 -342.81)" fill="#407bff"/>
        <path id="Caminho_85" data-name="Caminho 85" d="M191.588,385.822c-.186,0-.55-.1-.617-.251a.126.126,0,0,1,.04-.153.188.188,0,0,1,.153-.05c.221.023.48.38.49.395a.036.036,0,0,1,0,.036.035.035,0,0,1-.029.021Zm-.447-.383a.117.117,0,0,0-.081.032c-.034.032-.03.054-.023.07.044.1.33.2.516.208-.092-.115-.264-.3-.4-.309Z" transform="translate(-161.927 -341.296)" fill="#407bff"/>
        <path id="Caminho_86" data-name="Caminho 86" d="M140.009,404.667a.606.606,0,0,1-.355-.085.226.226,0,0,1-.092-.175.1.1,0,0,1,.045-.1c.165-.111.783.169.905.227a.036.036,0,0,1-.008.068A2.413,2.413,0,0,1,140.009,404.667Zm-.289-.313a.132.132,0,0,0-.071.015.034.034,0,0,0-.014.035.154.154,0,0,0,.064.12,1.008,1.008,0,0,0,.683.031A2.254,2.254,0,0,0,139.719,404.354Z" transform="translate(-120.866 -356.408)" fill="#407bff"/>
        <path id="Caminho_87" data-name="Caminho 87" d="M141.792,403.153l-.014,0c-.2-.084-.618-.415-.6-.586.005-.038.031-.085.124-.1.361-.043.514.613.52.641a.037.037,0,0,1-.035.045Zm-.452-.615h-.025c-.038,0-.059.016-.061.034-.013.1.272.361.481.476C141.688,402.891,141.558,402.539,141.341,402.539Z" transform="translate(-122.161 -354.956)" fill="#407bff"/>
        <path id="Caminho_88" data-name="Caminho 88" d="M99.911,182.131l.26-.167S100.091,182.229,99.911,182.131Z" transform="translate(-89.189 -178.799)" fill="#263238"/>
      </g>
    </g>
    <g id="Account" transform="translate(63.745 109.666)">
      <g id="Grupo_42" data-name="Grupo 42">
        <g id="Grupo_33" data-name="Grupo 33">
          <path id="Caminho_89" data-name="Caminho 89" d="M163.388,109.666H134.16a2.285,2.285,0,0,0-2.3,2.413l2.74,56.828a2.567,2.567,0,0,0,2.53,2.413H166.36a2.285,2.285,0,0,0,2.3-2.413l-2.74-56.828A2.567,2.567,0,0,0,163.388,109.666Z" transform="translate(-131.86 -109.666)"/>
          <path id="Caminho_90" data-name="Caminho 90" d="M168.722,109.666H139.494a2.285,2.285,0,0,0-2.3,2.413l2.74,56.828a2.567,2.567,0,0,0,2.53,2.413h29.228a2.285,2.285,0,0,0,2.3-2.413l-2.74-56.828A2.567,2.567,0,0,0,168.722,109.666Z" transform="translate(-136.121 -109.666)" fill="#263238"/>
          <path id="Caminho_91" data-name="Caminho 91" d="M148.787,176.1a.865.865,0,0,1-.843-.8L145.2,118.47a.769.769,0,0,1,.766-.8H175.2a.865.865,0,0,1,.843.8l2.74,56.828a.769.769,0,0,1-.766.8Z" transform="translate(-142.52 -116.057)" fill="#29c17e"/>
          <path id="Caminho_92" data-name="Caminho 92" d="M150.368,177.3a.438.438,0,0,1-.422-.4L149,157.323l-1.8-37.254a.39.39,0,0,1,.383-.4h29.228a.439.439,0,0,1,.422.4l2.74,56.828a.389.389,0,0,1-.383.4Z" transform="translate(-144.12 -117.655)" fill="#29c17e" opacity="0.1"/>
        </g>
        <g id="Grupo_41" data-name="Grupo 41" transform="translate(9.326 7.419)">
          <path id="Caminho_101" data-name="Caminho 101" d="M198.137,146.555h-19.9l1.94,40.244a6.514,6.514,0,0,0,6.439,6.142h19.9l-1.94-40.244A6.514,6.514,0,0,0,198.137,146.555Z" transform="translate(-178.234 -146.555)" opacity="0.2"/>
          <g id="Grupo_38" data-name="Grupo 38">
            <path id="Caminho_102" data-name="Caminho 102" d="M203.014,146.555h-24.78a6.514,6.514,0,0,1,6.438,6.142l1.579,32.758a6.514,6.514,0,0,0,6.438,6.142h12.5a5.8,5.8,0,0,0,5.846-6.142L209.452,152.7A6.514,6.514,0,0,0,203.014,146.555Z" transform="translate(-178.234 -146.555)" fill="#fafafa"/>
            <path id="Caminho_103" data-name="Caminho 103" d="M255.961,339.987a5.8,5.8,0,0,1-5.846,6.142h24.78a5.8,5.8,0,0,0,5.846-6.142Z" transform="translate(-235.659 -301.086)" fill="#e6e6e6"/>
          </g>
          <g id="Grupo_39" data-name="Grupo 39" transform="translate(10.277 15.421)">
            <path id="Caminho_104" data-name="Caminho 104" d="M247.326,244.039H229.812a.485.485,0,0,1-.478-.456h0a.432.432,0,0,1,.435-.457h17.514a.486.486,0,0,1,.478.457h0A.432.432,0,0,1,247.326,244.039Z" transform="translate(-229.333 -243.126)" fill="#29c17e"/>
            <path id="Caminho_105" data-name="Caminho 105" d="M248.009,258.213H230.5a.486.486,0,0,1-.478-.457h0a.432.432,0,0,1,.435-.457h17.514a.486.486,0,0,1,.479.457h0A.432.432,0,0,1,248.009,258.213Z" transform="translate(-229.879 -254.449)" fill="#29c17e"/>
            <path id="Caminho_106" data-name="Caminho 106" d="M248.693,272.387H231.179a.485.485,0,0,1-.478-.457h0a.432.432,0,0,1,.434-.456h17.514a.486.486,0,0,1,.479.456h0A.432.432,0,0,1,248.693,272.387Z" transform="translate(-230.425 -265.773)" fill="#29c17e"/>
            <path id="Caminho_107" data-name="Caminho 107" d="M249.376,286.559H231.862a.486.486,0,0,1-.478-.456h0a.432.432,0,0,1,.434-.457h17.514a.486.486,0,0,1,.478.457h0A.432.432,0,0,1,249.376,286.559Z" transform="translate(-230.971 -277.095)" fill="#29c17e"/>
            <path id="Caminho_108" data-name="Caminho 108" d="M243.1,300.733H232.545a.485.485,0,0,1-.478-.456h0a.432.432,0,0,1,.435-.457h10.551a.486.486,0,0,1,.479.457h0A.432.432,0,0,1,243.1,300.733Z" transform="translate(-231.517 -288.418)" fill="#29c17e"/>
          </g>
        </g>
      </g>
    </g>
    <g id="Character_Male" data-name="Character Male" transform="translate(92.343 109.935)">
      <g id="Grupo_47" data-name="Grupo 47">
        <g id="Grupo_43" data-name="Grupo 43" transform="translate(15.006 56.455)">
          <path id="Caminho_113" data-name="Caminho 113" d="M350.307,395.146H348.83l-.147-3.421h1.477Z" transform="translate(-348.683 -391.725)" fill="#b55b52"/>
          <path id="Caminho_114" data-name="Caminho 114" d="M348.685,391.729l.076,1.764h1.478l-.076-1.764Z" transform="translate(-348.684 -391.728)" opacity="0.2"/>
        </g>
        <g id="Grupo_44" data-name="Grupo 44" transform="translate(26.035 52.845)">
          <path id="Caminho_115" data-name="Caminho 115" d="M406.694,376.794l-1.4.458-1.766-3.023,1.4-.458Z" transform="translate(-403.523 -373.771)" fill="#b55b52"/>
          <path id="Caminho_116" data-name="Caminho 116" d="M404.93,373.773l-1.405.458.911,1.558,1.405-.458Z" transform="translate(-403.525 -373.773)" opacity="0.2"/>
        </g>
        <path id="Caminho_117" data-name="Caminho 117" d="M374.662,162.917c.184.224.34.424.5.641s.31.429.461.646c.3.436.583.882.85,1.343a15.122,15.122,0,0,1,1.355,2.96l.033.1.017.053.022.082.04.165.023.151a3,3,0,0,1,.021.545,5.424,5.424,0,0,1-.133.912,10.569,10.569,0,0,1-.5,1.571,18.227,18.227,0,0,1-1.438,2.806l-1-.481c.3-.942.595-1.909.824-2.847a11.239,11.239,0,0,0,.26-1.375,3.447,3.447,0,0,0,.023-.6,1.077,1.077,0,0,0-.029-.213l-.009-.037a.083.083,0,0,1-.01-.018l0-.009-.015-.037-.034-.079-.134-.315-.151-.314c-.1-.21-.211-.419-.322-.627-.228-.416-.477-.828-.733-1.237s-.531-.811-.808-1.212-.574-.8-.846-1.167Z" transform="translate(-353.037 -152.477)" fill="#b55b52"/>
        <path id="Caminho_118" data-name="Caminho 118" d="M380.933,218.545l-.578,1.278h1.652s.263-.97-.336-1.361Z" transform="translate(-358.979 -196.851)" fill="#b55b52"/>
        <path id="Caminho_119" data-name="Caminho 119" d="M380.549,226.665l1.533-.3-.074-1.139h-1.652Z" transform="translate(-358.979 -202.257)" fill="#b55b52"/>
        <path id="Caminho_120" data-name="Caminho 120" d="M344.1,129.836c0,.119-.063.216-.141.216s-.141-.1-.141-.216.063-.216.141-.216S344.1,129.717,344.1,129.836Z" transform="translate(-329.792 -125.876)" fill="#263238"/>
        <path id="Caminho_121" data-name="Caminho 121" d="M342.7,131.766a4.268,4.268,0,0,1-.569,1.019.687.687,0,0,0,.569.107Z" transform="translate(-328.445 -127.591)" fill="#a02724"/>
        <path id="Caminho_122" data-name="Caminho 122" d="M344.808,126.346a.069.069,0,0,1-.041-.013.557.557,0,0,0-.5-.091.07.07,0,0,1-.05-.131.694.694,0,0,1,.629.108.07.07,0,0,1-.041.127Z" transform="translate(-330.075 -123.047)" fill="#263238"/>
        <path id="Caminho_123" data-name="Caminho 123" d="M351.131,137.524c-.212,1.081-.424,3.061.333,3.783,0,0-.3,1.1-2.3,1.1-2.208,0-1.055-1.1-1.055-1.1,1.205-.288,1.174-1.182.964-2.022Z" transform="translate(-332.974 -132.191)" fill="#b55b52"/>
        <path id="Caminho_124" data-name="Caminho 124" d="M351.916,154.105c.158-.347.333-.744-.028-.869a9.273,9.273,0,0,0-3.316-.02.772.772,0,0,0-.537.961Z" transform="translate(-333.137 -144.613)" fill="#263238"/>
        <path id="Caminho_125" data-name="Caminho 125" d="M409.038,391.435c-.109.1-.232.19-.324.175a.143.143,0,0,1-.114-.121.162.162,0,0,1,.023-.135c.121-.186.609-.266.63-.269a.035.035,0,0,1,.035.016.035.035,0,0,1,0,.038A1.848,1.848,0,0,1,409.038,391.435Zm-.328-.076a.183.183,0,0,0-.028.033.094.094,0,0,0-.014.079c.017.064.047.068.057.07.1.016.322-.191.456-.371A1.152,1.152,0,0,0,408.71,391.359Z" transform="translate(-381.539 -334.758)" fill="#29c17e"/>
        <path id="Caminho_126" data-name="Caminho 126" d="M409.119,390.071a.038.038,0,0,1-.015.008c-.168.046-.605.016-.7-.124a.115.115,0,0,1,.017-.143.193.193,0,0,1,.139-.071c.221-.017.541.266.555.279a.035.035,0,0,1,0,.051Zm-.629-.227-.011.011c-.029.036-.018.053-.013.061.054.083.359.13.549.108a.845.845,0,0,0-.446-.214A.125.125,0,0,0,408.49,389.844Z" transform="translate(-381.376 -333.684)" fill="#29c17e"/>
        <path id="Caminho_127" data-name="Caminho 127" d="M344.65,407.7c-.19,0-.373-.026-.434-.112a.133.133,0,0,1,0-.153.175.175,0,0,1,.111-.082c.246-.067.762.227.784.24a.036.036,0,0,1,.017.036.035.035,0,0,1-.028.029A2.6,2.6,0,0,1,344.65,407.7Zm-.234-.287a.265.265,0,0,0-.068.008.106.106,0,0,0-.068.049c-.025.043-.016.065-.007.077.069.1.442.1.717.059A1.582,1.582,0,0,0,344.416,407.414Z" transform="translate(-330.09 -347.748)" fill="#29c17e"/>
        <path id="Caminho_128" data-name="Caminho 128" d="M346.615,406.254a.036.036,0,0,1-.014,0c-.178-.08-.531-.4-.5-.567.006-.039.034-.088.131-.1a.257.257,0,0,1,.194.06,1,1,0,0,1,.229.569.035.035,0,0,1-.015.032A.034.034,0,0,1,346.615,406.254Zm-.36-.6h-.021c-.063.007-.067.031-.068.04-.016.1.224.351.406.461a.823.823,0,0,0-.2-.456A.186.186,0,0,0,346.255,405.655Z" transform="translate(-331.609 -346.342)" fill="#29c17e"/>
        <path id="Caminho_129" data-name="Caminho 129" d="M406.814,385.566l1.2-1.147a.129.129,0,0,1,.161-.014l1.119.747a.217.217,0,0,1,.025.34c-.426.393-.653.563-1.18,1.068-.325.31-1.3,1.368-1.744,1.8s-.93.042-.785-.174A6.23,6.23,0,0,0,406.7,385.8.356.356,0,0,1,406.814,385.566Z" transform="translate(-379.134 -329.404)" fill="#263238"/>
        <path id="Caminho_130" data-name="Caminho 130" d="M335.289,407.887H336.9a.129.129,0,0,1,.126.1l.292,1.313a.215.215,0,0,1-.213.263c-.582-.01-1.423-.044-2.154-.044-.855,0-1.594.047-2.6.047-.607,0-.775-.613-.521-.669a8.909,8.909,0,0,0,3.1-.9A.685.685,0,0,1,335.289,407.887Z" transform="translate(-320.125 -348.181)" fill="#263238"/>
        <path id="Caminho_131" data-name="Caminho 131" d="M297.058,167.977c-.586.864-1.192,1.672-1.844,2.472a27.765,27.765,0,0,1-2.092,2.308l-.291.274-.073.068-.052.047-.074.064a2.029,2.029,0,0,1-.3.2,2.712,2.712,0,0,1-1.1.307,6.133,6.133,0,0,1-1.741-.143,13.2,13.2,0,0,1-2.986-1.05l.368-1.046a23.627,23.627,0,0,0,2.854.39,5.218,5.218,0,0,0,1.26-.053.807.807,0,0,0,.334-.13c.009-.008.007-.012.005-.013h0s0,0,0,0l.015-.016.06-.066.238-.262c.628-.717,1.237-1.48,1.829-2.261s1.184-1.581,1.749-2.361Z" transform="translate(-284.003 -155.504)" fill="#b55b52"/>
        <g id="Grupo_45" data-name="Grupo 45" transform="translate(19.201 9.405)">
          <path id="Caminho_132" data-name="Caminho 132" d="M371.475,157.815c1.385.317,2.973,4.093,2.973,4.093l-2.781,1.906a23.385,23.385,0,0,1-1.837-3.123C369.009,158.963,370.059,157.49,371.475,157.815Z" transform="translate(-369.542 -157.769)" fill="#29c17e"/>
          <path id="Caminho_133" data-name="Caminho 133" d="M374.223,169.964l1.315,3.5-.131.091s-.569-.8-1.185-1.876Z" transform="translate(-373.282 -167.512)" opacity="0.3"/>
        </g>
        <g id="Grupo_46" data-name="Grupo 46" transform="translate(12.132 9.067)">
          <path id="Caminho_134" data-name="Caminho 134" d="M335.118,156.547s-1.573,1.776-.088,12.77h7.9c.055-1.213-.708-7.13.462-12.846a20.631,20.631,0,0,0-2.645-.334,28.994,28.994,0,0,0-3.359,0A14.81,14.81,0,0,0,335.118,156.547Z" transform="translate(-334.392 -156.088)" fill="#29c17e"/>
          <path id="Caminho_135" data-name="Caminho 135" d="M335.995,174.176a7.012,7.012,0,0,1-1.561,3.383c-.032-.708-.044-1.343-.042-1.912Z" transform="translate(-334.392 -170.538)" opacity="0.3"/>
        </g>
        <path id="Caminho_136" data-name="Caminho 136" d="M324.573,159.466c.195,1.4-2.562,4.973-2.562,4.973l-2.77-1.907a10.9,10.9,0,0,1,2.061-3.26C322.78,157.8,324.361,157.944,324.573,159.466Z" transform="translate(-310.156 -148.743)" fill="#29c17e"/>
        <path id="Caminho_137" data-name="Caminho 137" d="M280.423,186.516l-1.083-1.121-1.156,1.491a2.335,2.335,0,0,0,1.929.61Z" transform="translate(-277.355 -170.434)" fill="#b55b52"/>
        <path id="Caminho_138" data-name="Caminho 138" d="M274.56,182.328l-.5,1.565.828.543,1.156-1.491Z" transform="translate(-274.065 -167.984)" fill="#b55b52"/>
        <path id="Caminho_139" data-name="Caminho 139" d="M348.291,120.9c-.09,1.463-.068,2.325-.807,3.076a1.948,1.948,0,0,1-3.268-1c-.314-1.315-.115-3.487,1.318-4.07A2,2,0,0,1,348.291,120.9Z" transform="translate(-330.006 -117.192)" fill="#b55b52"/>
        <path id="Caminho_140" data-name="Caminho 140" d="M340.031,111.657c.451.415.26.877.025.964.729.151.837.732.453,1.958-.368,1.174-1.254,2.749-2.362,2.846-1.665.145-2.152-1.589-2.163-3.311-.943.057-.536-.778-1.692-.585-1,.167-.629-.618-1.482-.959-.991-.4-.792-1.921.132-1.484,0,0-.429.283.071.547s.451-.347,1.438-.421,1.1.771,2.256.262C338.16,110.833,339.107,110.807,340.031,111.657Z" transform="translate(-320.47 -111.005)" fill="#263238"/>
        <path id="Caminho_141" data-name="Caminho 141" d="M368.572,117.906a.577.577,0,0,1,.641-.252c.452.1.49.3.774.269s.18.276.18.276-.076-.228-.418-.1-.565-.184-.712-.044S368.572,117.906,368.572,117.906Z" transform="translate(-349.566 -116.304)" fill="#263238"/>
        <path id="Caminho_142" data-name="Caminho 142" d="M350.369,128.787a1.656,1.656,0,0,1-.517.93c-.358.318-.668.063-.679-.373-.01-.392.165-1.03.578-1.183S350.442,128.354,350.369,128.787Z" transform="translate(-334.067 -124.682)" fill="#b55b52"/>
        <path id="Caminho_143" data-name="Caminho 143" d="M351.5,221.87s1.677,11.291,2.6,15.521c1.008,4.632,8.015,16.933,8.015,16.933l2.573-.838s-5.581-11.089-6.156-15.675c-.624-4.977-1.93-15.94-1.93-15.94Z" transform="translate(-335.93 -199.574)" fill="#263238"/>
        <path id="Caminho_144" data-name="Caminho 144" d="M400.693,375.6c-.011,0,.588.9.588.9l2.895-.943-.34-.865Z" transform="translate(-375.227 -321.66)" fill="#29c17e"/>
        <path id="Caminho_145" data-name="Caminho 145" d="M355.039,241.813c1.939.38,1.734,7.61,1.5,11.328-.559-2.629-1.378-7.687-1.937-11.276A.662.662,0,0,1,355.039,241.813Z" transform="translate(-338.406 -215.494)" opacity="0.3"/>
        <path id="Caminho_146" data-name="Caminho 146" d="M337.15,221.87s-.2,11.046-.043,15.552c.167,4.686,1.8,20.031,1.8,20.031h2.5s.092-15.071.2-19.673c.121-5.017.727-15.909.727-15.909Z" transform="translate(-324.379 -199.574)" fill="#263238"/>
        <path id="Caminho_147" data-name="Caminho 147" d="M343.926,393.843c-.011,0,.141,1.039.141,1.039h3.045l.082-.928Z" transform="translate(-329.875 -336.962)" fill="#29c17e"/>
      </g>
    </g>
  </g>
</svg>
