<svg xmlns="http://www.w3.org/2000/svg" xmlns:xlink="http://www.w3.org/1999/xlink" width="88" height="70.654" viewBox="0 0 133 133.58"><defs><filter id="a" x="18.521" y="16.346" width="97.177" height="89.085" filterUnits="userSpaceOnUse"><feOffset dy="3" input="SourceAlpha"/><feGaussianBlur stdDeviation="3" result="b"/><feFlood flood-opacity="0.161"/><feComposite operator="in" in2="b"/><feComposite in="SourceGraphic"/></filter></defs><g transform="translate(855 1208)"><path d="M116.536,242.28a22.316,22.316,0,0,1,0-31.559l44.185-44.185a22.316,22.316,0,0,1,31.559,0l44.185,44.185a22.316,22.316,0,0,1,0,31.559" transform="translate(-965 -1368)" fill="#29c17e"/><path d="M116.536,160a22.316,22.316,0,0,0,0,31.559l44.185,44.185a22.316,22.316,0,0,0,31.559,0l44.185-44.185a22.316,22.316,0,0,0,0-31.559" transform="translate(-965 -1316.7)" fill="#29c17e"/><g transform="translate(-827.479 -1185.653)"><g transform="translate(0 0)"><g transform="matrix(1, 0, 0, 1, -27.52, -22.35)" filter="url(#a)"><path d="M434.369,98.244c0,.288.332.29.392,0a11.419,11.419,0,0,1,2.155-4.944l-2.353,0a.194.194,0,0,0-.194.194Zm17.276-29.658c-.1-.313-.368-.334-.366-.006.027,3.088-.86,5.742-6.5,11.382l-4.462,4.456a31.421,31.421,0,0,0-4.932,5.736h4.4l.522-.522,6.4-6.4c5.329-5.329,6.072-10.966,4.934-14.641m-5.98,18.842-5.345,5.347c-3.234,3.236-5.951,6.024-5.951,9.073l0,.848c0,.232.286.267.374.027,1-2.731,4.337-5.644,10.459-4.61,0,0,26.668,4.608,26.892,4.627a.253.253,0,0,0,.221-.432c-.1-.121-12.411-12.43-12.411-12.43ZM426.371,93.3a.2.2,0,0,1-.194-.194v-2.76a.2.2,0,0,1,.194-.194l4.669,0a.2.2,0,0,0,.194-.2c-.013-2.478-1.881-4.161-9.367-2.858L405.7,89.877s-12.313,12.309-12.413,12.43a.253.253,0,0,0,.221.432c.226-.019,26.892-4.627,26.892-4.627,6.122-1.034,9.461,1.879,10.459,4.61.088.24.374.2.374-.027,0-.165,0-9.2,0-9.2a.2.2,0,0,0-.194-.194Zm-7.45-38.567c-5.329,5.329-6.072,10.966-4.934,14.641.1.313.367.334.363.006-.025-3.088.862-5.742,6.5-11.382l12.154-12.152c3.234-3.234,5.951-6.022,5.951-9.07V32.019c0-.288-.33-.29-.39,0-.8,3.882-2.351,5.412-5.552,8.613Zm20.049-9.607V40.337c0-.288-.332-.29-.39,0-.8,3.882-2.349,5.437-5.55,8.636L420.263,61.728c-6.2,6.2-7.266,12.192-4.115,16.044.209.259.436.1.3-.207-2.084-4.713,2.913-9.711,5.291-12.089L433.019,54.2c3.234-3.236,5.951-6.024,5.951-9.073M420.614,69.738c-6.2,6.2-3.347,12.177.267,13.825.317.146.443-.113.2-.322-2.9-2.512-2.017-6.734,1.627-10.377l10.3-10.3c3.234-3.234,5.951-6.022,5.951-9.07V48.74c0-.29-.332-.29-.39,0-.8,3.88-2.349,5.4-5.55,8.6Zm13.743,15.4v4.788c0,.288.33.29.39,0,.8-3.879,2.349-5.435,5.548-8.636l5.072-5.061c6.2-6.193,7.266-12.19,4.115-16.042-.211-.259-.436-.1-.3.207,2.084,4.713-2.913,9.709-5.291,12.089l-3.585,3.585c-3.236,3.234-5.951,6.022-5.951,9.07m5.953-12.221c-3.2,3.2-4.75,4.727-5.55,8.607-.058.29-.39.29-.39,0V76.769c0-3.049,2.716-5.836,5.951-9.073l2.6-2.6c3.646-3.644,4.525-7.866,1.627-10.377-.242-.209-.117-.468.2-.322,3.614,1.645,6.463,7.629.267,13.827Z" transform="translate(-365.7 -9.46)" fill="#eafbf3"/></g></g></g></g></svg>