<svg xmlns="http://www.w3.org/2000/svg" width="430.885" height="107.548" viewBox="0 0 100.885 87.548"><g transform="translate(0 81.658)"><ellipse cx="50.442" cy="2.945" rx="50.442" ry="2.945" transform="translate(0 0)" fill="#f5f5f5"/></g><g transform="translate(13.047 7.351)"><path d="M161.026,124.874a1.755,1.755,0,0,0-2.308,1.959c.323,1.545-3.442-.388-4.248,2.755a4.186,4.186,0,0,1,2.763,2.055c1.368,2.443,12.147,2.693,10.614-.328s1.717-3.8.731-5.942-2.833-2.721-4.163-2.2S160.256,122.889,161.026,124.874Z" transform="translate(-141.928 -122.033)" fill="#282828"/><path d="M178.621,123.092a.031.031,0,0,1-.023,0c-.3-.39-.406-.7-.312-.939.164-.437.916-.583,1.787-.752a4.378,4.378,0,0,0,2.266-.851.031.031,0,1,1,.044.044,4.424,4.424,0,0,1-2.3.869c-.853.166-1.59.31-1.74.713-.083.219.016.5.3.877a.023.023,0,1,1-.023.039Z" transform="translate(-159.523 -120.217)" fill="#263238"/><path d="M206.16,142.236c.6-.187,1.238-.4,1.852-.617s1.236-.445,1.845-.689a30.3,30.3,0,0,0,3.523-1.657c.138-.073.307-.169.346-.2s.075-.06.114-.088l.122-.117a3.773,3.773,0,0,0,.486-.653,11.418,11.418,0,0,0,.817-1.678c.245-.6.463-1.218.661-1.847s.39-1.272.562-1.9l1.067.172a22.355,22.355,0,0,1-.721,4.111,11.661,11.661,0,0,1-.781,2.04,5.6,5.6,0,0,1-.648,1.02c-.075.086-.148.169-.226.26a2.288,2.288,0,0,1-.26.242,5.617,5.617,0,0,1-.507.346,25.162,25.162,0,0,1-3.725,1.949,32.185,32.185,0,0,1-3.931,1.41Z" transform="translate(-180.171 -129.281)" fill="#ffb573"/><path d="M200.073,165.135c.336-.84,5.138-1.465,5.138-1.465l.687,4.248s-4.051,1.574-4.92.78A3.431,3.431,0,0,1,200.073,165.135Z" transform="translate(-175.528 -152.127)" fill="#282828"/><path d="M244.252,126.862l-.372-1.722,1.956.931s.081,1.366-.674,1.821l-.187-.1a1.392,1.392,0,0,1-.723-.934Z" transform="translate(-208.077 -123.621)" fill="#ffb573"/><path d="M244.33,119.3l1.738.523-.232,1.928-1.956-.931Z" transform="translate(-208.077 -119.3)" fill="#ffb573"/><path d="M162,344.115l1.824,1.126,2.844-3.554-1.561-1.418Z" transform="translate(-147.499 -282.783)" fill="#ffb573"/><path d="M160.572,353.8l-1.61-1.772a.172.172,0,0,0-.224-.029l-1.582,1.074a.341.341,0,0,0-.052.507c.572.606.879.872,1.587,1.649.437.479,1.636,1.9,2.24,2.56s1.3.1,1.1-.226a8.557,8.557,0,0,1-1.314-3.413A.552.552,0,0,0,160.572,353.8Z" transform="translate(-143.811 -291.438)" fill="#282828"/><g transform="translate(16.005 57.487)" opacity="0.2"><path d="M170.944,341.69l-1.387,1.73-1.777-1.168,1.6-1.982Z" transform="translate(-167.78 -340.27)"/></g><path d="M182.074,167.75s1.009.372-1.223,12.836l-8.65-.138c.2-3.52.26-5.692-1.3-12.943a24.876,24.876,0,0,1,3.642-.424,27.423,27.423,0,0,1,3.928.065C180.167,167.326,182.074,167.75,182.074,167.75Z" transform="translate(-154.084 -154.62)" fill="#282828"/><path d="M174.34,183.5c.1.583.174,1.121.239,1.623a8.965,8.965,0,0,0,.676-2.672Z" transform="translate(-156.629 -166.021)" opacity="0.2"/><path d="M185.41,150.23c.229,1.267.437,3.588-.46,4.423,0,0,.325,1.3,2.674,1.327,2.581.042,1.254-1.262,1.254-1.262-1.4-.359-1.35-1.4-1.09-2.383Z" transform="translate(-164.478 -142.183)" fill="#ffb573"/><path d="M183.542,167.086a27.026,27.026,0,0,1,3.926.062l.26.029a3.975,3.975,0,0,1-.388,3.382s-3.439-1.98-4.311-3.447C183.183,167.1,183.358,167.091,183.542,167.086Z" transform="translate(-163.058 -154.622)" fill="#ffb573"/><path d="M190.291,153.52l1.407,1.241a4.131,4.131,0,0,0-.133.695,1.743,1.743,0,0,1-1.316-1.254A1.866,1.866,0,0,1,190.291,153.52Z" transform="translate(-168.389 -144.617)" opacity="0.2"/><path d="M181.409,131.686c.447,2.066.593,2.95,1.821,3.858a2.7,2.7,0,0,0,4.449-1.8c.161-1.943-.6-5-2.768-5.51a2.883,2.883,0,0,0-3.5,3.447Z" transform="translate(-161.804 -125.851)" fill="#ffb573"/><path d="M177.2,131.58c.869.057,1.889.5,1.642,1.686s-1.2.4-.853,2.133-2.846.728-2.365-.859S175.864,131.494,177.2,131.58Z" transform="translate(-157.538 -128.382)" fill="#282828"/><path d="M178.722,129.923c1.27,1.181,3.041-2.11,4.774-.874s1.7-.879-.26-1.4S177.19,128.5,178.722,129.923Z" transform="translate(-159.622 -125.394)" fill="#282828"/><path d="M179.481,218.784s.916,12.391.671,18.885c-.26,6.764-8.877,15.4-8.877,15.4l-2.227-1.821c-.057.029,6.244-11.174,5.9-14.569-.78-7.2-1.8-18.008-1.8-18.008Z" transform="translate(-152.714 -192.818)" fill="#29c17e"/><path d="M166.83,342.381l2.875,1.777.778-.786-3.151-2.1Z" transform="translate(-151.073 -283.522)" fill="#282828"/><path d="M188.046,232.851c-.781-1.348-1.345-1.3-1.767-.46.356,3.679.9,9.212,1.363,13.57C188.668,242.773,190.422,237,188.046,232.851Z" transform="translate(-165.462 -202.527)" opacity="0.2"/><path d="M111.45,300.9l.684,2.016,4.922-.848-.684-2.016Z" transform="translate(-110.1 -253.026)" fill="#ffb573"/><path d="M109.055,303.5l-.338-2.367a.2.2,0,0,0-.172-.167l-1.946-.247a.294.294,0,0,0-.333.343c.13.825.237,1.223.385,2.266.094.64.289,2.482.414,3.366s1.025.921,1.041.552a7.336,7.336,0,0,1,.856-3.382A.494.494,0,0,0,109.055,303.5Z" transform="translate(-106.262 -253.52)" fill="#282828"/><g transform="translate(3.733 47.024)" opacity="0.2"><path d="M123.833,302.066l-2.537.437-.687-2.016,2.537-.437Z" transform="translate(-120.61 -300.05)"/></g><path d="M142.157,218.734s-1.184,11.6-3.947,17.563c-1.194,2.581-15.167,6.075-15.167,6.075l-1.223-2.6a99.68,99.68,0,0,1,10.63-5.627,1.845,1.845,0,0,0,1.163-1.374c1.358-6.85,2.209-14.129,2.209-14.129Z" transform="translate(-117.77 -192.796)" fill="#29c17e"/><path d="M121.23,297.321l1.059,3.208,1.147.031-1.1-3.78Z" transform="translate(-117.336 -250.607)" fill="#282828"/><path d="M115.918,312.5a.882.882,0,0,0,.206.52.323.323,0,0,0,.26.088.143.143,0,0,0,.125-.088c.107-.26-.45-1.1-.52-1.189a.06.06,0,0,0-.055-.026.049.049,0,0,0-.039.042A3.642,3.642,0,0,0,115.918,312.5Zm.5.372a.2.2,0,0,1,0,.091.057.057,0,0,1-.052.034.2.2,0,0,1-.169-.055A1.414,1.414,0,0,1,116,312a3.042,3.042,0,0,1,.408.872Z" transform="translate(-113.385 -261.726)" fill="#ffd31d"/><path d="M115.892,311.852v.018c.153.26.687.741.924.7.057,0,.122-.049.117-.19a.4.4,0,0,0-.127-.276,1.647,1.647,0,0,0-.872-.3.055.055,0,0,0-.044.021A.131.131,0,0,0,115.892,311.852Zm.944.489v.031c0,.091-.034.1-.044.1-.143.026-.557-.307-.752-.562a1.368,1.368,0,0,1,.7.26.309.309,0,0,1,.094.164Z" transform="translate(-113.385 -261.719)" fill="#ffd31d"/><path d="M195.515,140.934c.026.172.135.294.247.278s.179-.169.153-.338-.138-.294-.247-.278S195.489,140.765,195.515,140.934Z" transform="translate(-172.291 -135.055)" fill="#263238"/><path d="M202.882,139.8c.026.169.138.294.26.276s.179-.169.154-.338-.138-.294-.26-.276S202.856,139.634,202.882,139.8Z" transform="translate(-177.741 -134.218)" fill="#263238"/><path d="M203.31,139.02l.39-.18S203.539,139.191,203.31,139.02Z" transform="translate(-178.062 -133.757)" fill="#263238"/><path d="M200,142.28a4.589,4.589,0,0,0,.78.991.734.734,0,0,1-.588.206Z" transform="translate(-175.613 -136.302)" fill="#ed893e"/><path d="M194.645,148.6a1.766,1.766,0,0,0,.26-.021.05.05,0,1,0-.016-.1,1.368,1.368,0,0,1-1.178-.356.05.05,0,0,0-.075.065A1.4,1.4,0,0,0,194.645,148.6Z" transform="translate(-170.896 -140.61)" fill="#263238"/><path d="M180.26,146.378a1.543,1.543,0,0,0,.926.731c.52.143.78-.325.632-.817-.133-.442-.565-1.041-1.087-.976a.692.692,0,0,0-.471,1.061Z" transform="translate(-160.926 -138.544)" fill="#ffb573"/><path d="M191.25,138.3a.1.1,0,0,0,.1-.068,1.178,1.178,0,0,1,.723-.627.1.1,0,0,0,.065-.127.1.1,0,0,0-.125-.065,1.345,1.345,0,0,0-.856.754.1.1,0,0,0,.065.127A.066.066,0,0,0,191.25,138.3Z" transform="translate(-169.064 -132.698)" fill="#263238"/><path d="M201.191,136.03a.1.1,0,0,0,.052-.187,1.007,1.007,0,0,0-.918-.078.1.1,0,0,0,.088.182h0a.8.8,0,0,1,.726.068A.093.093,0,0,0,201.191,136.03Z" transform="translate(-175.816 -131.425)" fill="#263238"/><path d="M156.307,175.522c-.382.411-.781.859-1.171,1.3s-.78.89-1.134,1.35a22.262,22.262,0,0,0-1.962,2.844l-.1.182a.708.708,0,0,1-.044.073.884.884,0,0,0-.055.226,3.959,3.959,0,0,0-.016.736,14.344,14.344,0,0,0,.219,1.691c.1.578.216,1.16.354,1.74s.26,1.171.411,1.746l-1.012.369a25.8,25.8,0,0,1-1.363-3.473,13.18,13.18,0,0,1-.442-1.889,5.911,5.911,0,0,1-.068-1.082,2.972,2.972,0,0,1,.109-.666,1.641,1.641,0,0,1,.07-.2c.034-.083.047-.112.065-.148l.107-.221a14.938,14.938,0,0,1,.942-1.691c.336-.544.708-1.041,1.082-1.561a28,28,0,0,1,2.456-2.862Z" transform="translate(-138.562 -159.762)" fill="#ffb573"/><path d="M163.623,168.779c-.887.18-2.563,2.974-2.563,2.974l2.862,2.75s2.1-1.759,2.06-2.935C165.943,170.34,164.635,168.563,163.623,168.779Z" transform="translate(-146.804 -155.893)" fill="#282828"/><path d="M170.562,360.418a.781.781,0,0,0,.445.294.279.279,0,0,0,.242-.1.164.164,0,0,0,.042-.154c-.07-.291-.963-.627-1.064-.663a.044.044,0,0,0-.055.016.047.047,0,0,0,0,.057A3.363,3.363,0,0,0,170.562,360.418Zm.58-.016a.19.19,0,0,1,.049.083.06.06,0,0,1-.018.06.177.177,0,0,1-.159.068c-.172-.018-.421-.26-.682-.666A2.776,2.776,0,0,1,171.143,360.4Z" transform="translate(-153.538 -297.228)" fill="#ffd31d"/><path d="M170.147,359a.046.046,0,0,0,.018.013c.26.109.934.172,1.085-.018a.18.18,0,0,0-.021-.237.374.374,0,0,0-.26-.148,1.419,1.419,0,0,0-.82.317.044.044,0,0,0-.021.044.1.1,0,0,0,.018.029Zm.981-.206.018.023c.057.075.034.1.026.112-.091.117-.588.107-.879.021a1.176,1.176,0,0,1,.669-.242.279.279,0,0,1,.174.086Z" transform="translate(-153.513 -296.346)" fill="#ffd31d"/><path d="M195.93,140.16l.39-.179S196.162,140.329,195.93,140.16Z" transform="translate(-172.602 -134.6)" fill="#263238"/><path d="M174.743,216.437l-.234.781c-.031.06.039.122.141.125l8.9.143c.078,0,.143-.036.148-.086l.091-.781c0-.055-.062-.1-.148-.1l-8.752-.143A.153.153,0,0,0,174.743,216.437Z" transform="translate(-156.748 -191.119)" fill="#fafafa"/><path d="M179,217.3h-.234c-.047,0-.081-.026-.078-.055l.127-1c0-.029.044-.052.091-.052h.234c.047,0,.081.026.078.057l-.128,1C179.09,217.277,179.049,217.3,179,217.3Z" transform="translate(-159.847 -190.983)" fill="#ffd31d"/><g transform="translate(18.843 25.207)" opacity="0.3"><path d="M179,217.3h-.234c-.047,0-.081-.026-.078-.055l.127-1c0-.029.044-.052.091-.052h.234c.047,0,.081.026.078.057l-.128,1C179.09,217.277,179.049,217.3,179,217.3Z" transform="translate(-178.689 -216.19)" fill="#fff"/></g><path d="M205.854,217.731h-.237c-.047,0-.081-.023-.078-.055l.127-1c0-.029.044-.052.091-.052h.234c.047,0,.083.026.078.055l-.125,1C205.94,217.707,205.9,217.731,205.854,217.731Z" transform="translate(-179.711 -191.301)" fill="#ffd31d"/><path d="M205.854,217.731h-.237c-.047,0-.081-.023-.078-.055l.127-1c0-.029.044-.052.091-.052h.234c.047,0,.083.026.078.055l-.125,1C205.94,217.707,205.9,217.731,205.854,217.731Z" transform="translate(-179.711 -191.301)" fill="#fff" opacity="0.3"/><path d="M192.431,217.507H192.2c-.047,0-.083-.026-.078-.055l.125-1a.081.081,0,0,1,.091-.052h.237c.047,0,.081.026.078.055l-.127,1C192.519,217.483,192.478,217.507,192.431,217.507Z" transform="translate(-169.782 -191.134)" fill="#ffd31d"/><path d="M192.431,217.507H192.2c-.047,0-.083-.026-.078-.055l.125-1a.081.081,0,0,1,.091-.052h.237c.047,0,.081.026.078.055l-.127,1C192.519,217.483,192.478,217.507,192.431,217.507Z" transform="translate(-169.782 -191.134)" fill="#fff" opacity="0.3"/><path d="M158.053,224.231l1.3,1.9-2.154-.221s-.52-1.262.021-1.951Z" transform="translate(-143.781 -196.732)" fill="#ffb573"/><path d="M159.854,233.451l-1.793-.284-.242-1.727,2.154.224Z" transform="translate(-144.407 -202.266)" fill="#ffb573"/></g><g transform="translate(49.467 0)"><path d="M267.145,134.947l-.31.148-.286.128c-.19.081-.38.156-.572.229-.382.146-.767.278-1.16.4a14.678,14.678,0,0,1-2.432.52,10.628,10.628,0,0,1-2.589,0,7.343,7.343,0,0,1-1.332-.286c-.109-.029-.221-.073-.33-.109l-.164-.06-.187-.081a3.074,3.074,0,0,1-.359-.177c-.114-.062-.226-.125-.325-.192a6.6,6.6,0,0,1-1.064-.872,11.215,11.215,0,0,1-.848-.937,18.239,18.239,0,0,1-1.363-1.977,26.239,26.239,0,0,1-2.032-4.189l1.337-.65c.393.6.8,1.236,1.225,1.821s.851,1.192,1.3,1.756a18.515,18.515,0,0,0,1.387,1.595,6.45,6.45,0,0,0,1.446,1.171,3.941,3.941,0,0,0,1.59.359,8.682,8.682,0,0,0,1.9-.122,14.628,14.628,0,0,0,1.962-.476c.325-.1.651-.208.973-.328.159-.06.317-.125.473-.187l.232-.1.2-.086Z" transform="translate(-250.349 -117.527)" fill="#ff8b7b"/><path d="M251.967,123.848l-.13-2.008-1.767,1.845s.458,1.4,1.4,1.561l.148-.169A1.486,1.486,0,0,0,251.967,123.848Z" transform="translate(-249.076 -113.828)" fill="#ff8b7b"/><path d="M247.78,117.23l-1.53,1.212.991,1.832,1.769-1.845Z" transform="translate(-246.25 -110.417)" fill="#ff8b7b"/><path d="M346.21,147c.479.562.879,1.1,1.3,1.673s.8,1.147,1.168,1.743a21.627,21.627,0,0,1,1.928,3.84l.18.536.044.133.021.068.029.1a2.829,2.829,0,0,1,.083.429,4.5,4.5,0,0,1-.068,1.392,9.987,9.987,0,0,1-.715,2.157,19.811,19.811,0,0,1-2.151,3.624l-1.3-.744c.231-.6.471-1.225.684-1.839s.419-1.228.585-1.821a9.393,9.393,0,0,0,.336-1.73,2,2,0,0,0-.034-.614.149.149,0,0,0-.023-.065v-.018l-.021-.052-.044-.1-.172-.411a23.934,23.934,0,0,0-1.878-3.257c-.354-.52-.728-1.059-1.106-1.584s-.78-1.041-1.155-1.53Z" transform="translate(-318.495 -132.442)" fill="#ff8b7b"/><path d="M350.893,202.5l-1.093,1.691,2.518-.429s.463-1.395-.193-2.081l-.221.047a1.483,1.483,0,0,0-1.012.773Z" transform="translate(-322.86 -172.897)" fill="#ff8b7b"/><path d="M350.093,211.808l1.951-.062.294-2.066-2.518.429Z" transform="translate(-322.875 -178.816)" fill="#ff8b7b"/><path d="M315.087,114.714c-.013.161-.1.286-.211.284s-.179-.135-.169-.294.107-.286.211-.284S315.1,114.555,315.087,114.714Z" transform="translate(-296.897 -108.338)" fill="#263238"/><path d="M313.386,116.66a6.035,6.035,0,0,1-.856,1.34.9.9,0,0,0,.752.166Z" transform="translate(-295.287 -109.996)" fill="#ff5652"/><path d="M315.442,111.006a.081.081,0,0,0,.055,0,.736.736,0,0,1,.658.14.094.094,0,0,0,.114-.146.916.916,0,0,0-.832-.172.1.1,0,0,0-.06.12A.1.1,0,0,0,315.442,111.006Z" transform="translate(-297.39 -105.655)" fill="#263238"/><path d="M321.223,123.68c.06,1.631-.408,3.642.632,4.537,0,0-.351,1.5-3.039,1.681-2.955.2-1.457-1.374-1.457-1.374,1.6-.5,1.525-1.694,1.21-2.8Z" transform="translate(-298.579 -115.189)" fill="#ff8b7b"/><path d="M323.425,138.559c.2-.481.385-1.21-.1-1.345a10.63,10.63,0,0,0-5.2.354,1.772,1.772,0,0,1,.125,1.444Z" transform="translate(-299.422 -125.076)" fill="#282828"/><path d="M383.615,371.1a.216.216,0,0,1-.083-.016.19.19,0,0,1-.107-.2.231.231,0,0,1,.078-.174c.221-.2.864-.151.892-.148a.047.047,0,0,1,.029.081A1.713,1.713,0,0,1,383.615,371.1Zm.575-.45a1.088,1.088,0,0,0-.622.133.13.13,0,0,0-.049.1c0,.091.039.107.049.112.127.052.476-.151.708-.346Z" transform="translate(-347.736 -297.841)" fill="#ffd31d"/><path d="M384.7,369.217c-.232,0-.76-.177-.833-.385a.154.154,0,0,1,.068-.187.242.242,0,0,1,.2-.049c.286.052.6.52.611.552a.045.045,0,0,1,0,.047.049.049,0,0,1-.039.023Zm-.611-.52a.159.159,0,0,0-.1.031c-.052.042-.042.07-.037.083.044.125.416.286.661.317-.1-.135-.312-.4-.494-.429Z" transform="translate(-348.061 -296.384)" fill="#ffd31d"/><path d="M334.868,395.76a.294.294,0,0,1-.174-.044.179.179,0,0,1-.055-.2c.091-.4,1.085-.2,1.2-.174a.049.049,0,0,1,.036.039.047.047,0,0,1-.023.049A2.629,2.629,0,0,1,334.868,395.76Zm.333-.393c-.234,0-.44.039-.471.169-.018.075,0,.1.021.1.12.088.6-.062.934-.232A3.357,3.357,0,0,0,335.2,395.367Z" transform="translate(-311.636 -316.123)" fill="#ffd31d"/><path d="M336.8,393.82h0c-.26-.029-.817-.284-.853-.52a.173.173,0,0,1,.125-.185.333.333,0,0,1,.26,0c.3.12.5.614.5.635a.057.057,0,0,1,0,.047A.055.055,0,0,1,336.8,393.82Zm-.58-.635a.24.24,0,0,0-.1.023c-.081.036-.073.073-.073.086.023.138.419.356.689.416a1.077,1.077,0,0,0-.419-.5A.259.259,0,0,0,336.223,393.185Z" transform="translate(-312.614 -314.509)" fill="#ffd31d"/><path d="M337.651,380.715l-1.881.627-1.47-4.347,1.878-.624Z" transform="translate(-311.393 -302.14)" fill="#ff8b7b"/><path d="M381.173,356.288l-1.707,1-3.036-3.538,1.709-1Z" transform="translate(-342.562 -284.665)" fill="#ff8b7b"/><path d="M381.707,366.427l1.917-1.132a.169.169,0,0,1,.211.034l1.173,1.355a.3.3,0,0,1-.083.455c-.676.385-1.022.536-1.868,1.041-.52.3-1.561.989-2.274,1.413s-1.2-.26-.942-.486a5.131,5.131,0,0,0,1.647-2.4.5.5,0,0,1,.219-.278Z" transform="translate(-345.035 -293.93)" fill="#282828"/><path d="M328.162,392.643l2.053-.687a.167.167,0,0,1,.2.078l.864,1.561a.3.3,0,0,1-.172.427c-.744.237-1.821.549-2.755.859A17.538,17.538,0,0,1,325,396.129c-.8.117-1.116-.666-.78-.78a7.786,7.786,0,0,0,3.541-2.4A.924.924,0,0,1,328.162,392.643Z" transform="translate(-303.838 -313.665)" fill="#282828"/><path d="M342.572,141.716c1.889.062,4.766,4.657,4.766,4.657l-3.262,3.247a29.691,29.691,0,0,1-3.067-3.668C339.567,143.87,340.641,141.654,342.572,141.716Z" transform="translate(-315.864 -128.532)" fill="#29c17e"/><path d="M345.41,153.477l-.981-2.167L344,153.467c.57.781,1.168,1.5,1.662,2.061A3.517,3.517,0,0,0,345.41,153.477Z" transform="translate(-318.569 -135.631)" opacity="0.2"/><path d="M304.834,150.906c.164,2.206.486,4.943,1.041,8.325l10.573-.723c.023-1.631-1.231-9.5.1-17.275a26.874,26.874,0,0,0-3.551-.206,38.583,38.583,0,0,0-4.493.307,20.262,20.262,0,0,0-3.026.757s-.838,1.041-.8,5.653C304.7,148.66,304.743,149.706,304.834,150.906Z" transform="translate(-289.482 -128.023)" fill="#29c17e"/><path d="M304.846,164.906c.559-1.21,1.561-3.642,1.3-4.956l-1.447,1.8C304.713,162.661,304.755,163.707,304.846,164.906Z" transform="translate(-289.494 -142.023)" opacity="0.2"/><path d="M294.5,148.246c-.593,1.79-4.378,3.507-4.378,3.507L287,146.81a21.677,21.677,0,0,1,4.9-1.727C294.636,144.557,295.169,146.23,294.5,148.246Z" transform="translate(-276.399 -130.951)" fill="#29c17e"/><path d="M334.3,377l.757,2.24,1.881-.627-.757-2.24Z" transform="translate(-311.393 -302.14)" opacity="0.2"/><path d="M378.147,352.75l-1.707,1.007L378,355.578l1.707-1Z" transform="translate(-342.57 -284.665)" opacity="0.2"/><path d="M320.415,106.434c-.26,1.956-.3,3.109-1.363,4.085a2.557,2.557,0,0,1-4.29-1.47c-.3-1.774.166-4.683,2.141-5.4a2.581,2.581,0,0,1,3.512,2.781Z" transform="translate(-296.876 -100.235)" fill="#ff8b7b"/><path d="M322.978,112.923c.52.6,2.282.343,2.651.036s3.811-2.341,3.01-4.074-5.346-2.742-5.916-1.225S322.439,112.3,322.978,112.923Z" transform="translate(-302.597 -102.788)" fill="#282828"/><path d="M342.85,112.51a2.041,2.041,0,0,1,1.743,1.363A6.1,6.1,0,0,0,342.85,112.51Z" transform="translate(-317.719 -106.925)" fill="#263238"/><path d="M314.957,97.108c-2.045-.141-6.119-3.158-3.078-4.683s2.968,1.4,4.194,2.141,1.821-.726,3.27-.159c1.384.541,2.011,3.663-.312,3.366S314.957,97.108,314.957,97.108Z" transform="translate(-293.999 -91.745)" fill="#282828"/><path d="M315.226,96c-1.441,0-3.679-1.1-4.3-2.422a1.441,1.441,0,0,1,.237-1.66,2.133,2.133,0,0,1,1.457-.872,2.892,2.892,0,0,1,1.936,1.09c.52.5,1.041.97,1.525.861a.065.065,0,1,1,.029.128c-.567.125-1.09-.369-1.644-.892s-1.15-1.093-1.839-1.059a2.046,2.046,0,0,0-1.366.83,1.3,1.3,0,0,0-.216,1.519,5.319,5.319,0,0,0,4.246,2.341h0a.065.065,0,0,1,0,.13Z" transform="translate(-293.982 -91.044)" fill="#263238"/><path d="M321.61,114.109a2.342,2.342,0,0,1-.835,1.189c-.52.39-.9.018-.848-.567.047-.52.38-1.358.952-1.519S321.763,113.539,321.61,114.109Z" transform="translate(-300.755 -107.421)" fill="#ff8b7b"/><path d="M323.7,208.705s2.7,14.993,4.095,20.581c1.535,6.121,10.177,19.442,10.177,19.442l3.122-1.842s-6.4-11.343-7.355-17.431c-1.041-6.621-3.218-21.206-3.218-21.206Z" transform="translate(-303.551 -177.758)" fill="#282828"/><path d="M374.2,354.524c-.013,0,.983,1.041.983,1.041l3.517-2.081-.65-1.054Z" transform="translate(-340.912 -284.428)" fill="#29c17e"/><path d="M328.12,230.373c2.6.333,2.622,10.05,2.461,15.058-.853-3.473-2.151-10.183-3.041-14.949A.905.905,0,0,1,328.12,230.373Z" transform="translate(-306.392 -194.118)" opacity="0.2"/><path d="M309.29,209.69s.169,14.829.565,20.865c.4,6.275,5.864,24.819,5.864,24.819l3.184-1.064s-2.974-17.5-3.01-23.675c-.036-6.741.338-21.406.338-21.406Z" transform="translate(-292.89 -178.483)" fill="#282828"/><path d="M330.239,378c-.016,0,.57,1.277.57,1.277l3.871-1.3-.034-1.543Z" transform="translate(-308.388 -302.184)" fill="#85d2b0"/></g><g transform="translate(46.424 2.123)"><rect width="0.26" height="1.384" transform="matrix(0.754, -0.657, 0.657, 0.754, 0, 3.586)" fill="#ffd31d"/><rect width="0.26" height="3.895" transform="translate(1.125 0.089) rotate(-20.05)" fill="#ffd31d"/><rect width="2.269" height="0.26" transform="translate(4.072 3.472) rotate(-86.49)" fill="#ffd31d"/><rect width="3.02" height="0.26" transform="translate(5.477 3.742) rotate(-63.76)" fill="#ffd31d"/><rect width="0.846" height="0.26" transform="translate(6.768 4.219) rotate(-22.51)" fill="#ffd31d"/></g></svg>