<svg xmlns="http://www.w3.org/2000/svg" width="20" height="21.459" viewBox="0 0 24 25.459"><g transform="translate(0)"><path d="M33.243,16.356a4.556,4.556,0,0,0-3.605,1.776l-6.994-3.907a4.567,4.567,0,0,0,.254-1.5,4.467,4.467,0,0,0-.259-1.507l6.989-3.9a4.547,4.547,0,1,0-.941-2.765,4.444,4.444,0,0,0,.259,1.507l-6.983,3.9a4.547,4.547,0,1,0,.011,5.524l6.989,3.907a4.549,4.549,0,1,0,4.282-3.034Zm0-14.923a3.124,3.124,0,1,1-3.124,3.124A3.127,3.127,0,0,1,33.243,1.433ZM18.357,15.848a3.124,3.124,0,1,1,3.124-3.124A3.127,3.127,0,0,1,18.357,15.848Zm14.886,8.178A3.124,3.124,0,1,1,36.367,20.9,3.127,3.127,0,0,1,33.243,24.026Z" transform="translate(-13.8 0)" fill="#8890A6"/></g></svg>